# xmcd
#
# Track frame offsets:
#	150
#	21903
#	37348
#	60574
#	82042
#	95419
#	114075
#	140971
#	164349
#	201846
#	233007
#	252163
#	264491
#	281735
#	304264
#	331389
#
# Disc length: 4766 seconds
#
# Revision: 0
# Processed by: cddbd v1.5.2PL0 Copyright (c) Steve Scherf et al.
# Submitted via: EasyCDDAExtractor 12.0.0.1
#
DISCID=e9129c10
DTITLE=Various Artist - Salon Cosmos 2000
DYEAR=1900
DGENRE=Salsa
TTITLE0=Joe Arroyo - No le pegue a la negra
TTITLE1=Latin Brothers - Sobre las olas
TTITLE2=Grupo Clase - Ojos que no ven
TTITLE3=Alquimia - Pa la paloma
TTITLE4=Sonora Matancera - Que dichoso es
TTITLE5=Celia Cruz - Baila con la punta
TTITLE6=Sonora Ponceña - Fuego en el 23
TTITLE7=Grupo Niche - Cali Pachanguero
TTITLE8=Lovie Lopez - Corazon Borracho
TTITLE9=Orquesta Inmensidad - Lagrimas
TTITLE10=Fruko y sus Tesos - Tu sufriras
TTITLE11=Sonora Matancera - La Rumbantela
TTITLE12=Oscar D LEon - Lloraras
TTITLE13=Hector Lavoe - Todo tiene su final
TTITLE14=David Cedeño - Cuando se acabe la rumba
TTITLE15=Salsa Celtica - El Sol de la noche
EXTD=
EXTT0=
EXTT1=
EXTT2=
EXTT3=
EXTT4=
EXTT5=
EXTT6=
EXTT7=
EXTT8=
EXTT9=
EXTT10=
EXTT11=
EXTT12=
EXTT13=
EXTT14=
EXTT15=
PLAYORDER=
